<svg width="120" height="121" fill="none" xmlns="http://www.w3.org/2000/svg"><path d="M19.313 48.11S15.02 16.14 63.47 24.388c0 0-19.45 44.947-43.447 27.9 0 0 8.513-15.96 21.353-19.654.095.055-17.147 4.974-22.064 15.478ZM81.347 29.45s31.992 4.13 11.487 48.795c0 0-38.382-30.421-15.706-49.189 0 0 13.213 12.354 13.459 25.713-.078.078-.367-17.85-9.24-25.318ZM68.625 97.917S43.083 117.62 26 71.537c0 0 48.65-5.63 45.886 23.676 0 0-18.078.607-27.697-8.664 0-.11 12.881 12.362 24.436 11.368Z" fill="#283E52"/></svg>