<svg xmlns="http://www.w3.org/2000/svg" width="200" height="201" viewBox="0 0 200 201" fill="none">
  <path d="M89.4664 154.768C113.472 154.768 132.933 135.308 132.933 111.302C132.933 87.2956 113.472 67.835 89.4664 67.835C65.4604 67.835 45.9998 87.2956 45.9998 111.302C45.9998 118.015 47.5215 124.372 50.2388 130.048C51.1728 131.999 51.5007 134.209 50.9417 136.298L49.1593 142.96C47.7545 148.21 52.5579 153.014 57.8083 151.609L64.4697 149.826C66.5591 149.267 68.7693 149.595 70.7201 150.529C76.396 153.247 82.7535 154.768 89.4664 154.768Z" stroke="#283E52" stroke-width="2.5"/>
  <path d="M132.933 114.029C133.294 113.879 133.652 113.722 134.007 113.56C135.975 112.661 138.182 112.325 140.271 112.884L142.858 113.576C148.108 114.981 152.912 110.178 151.507 104.927L150.815 102.341C150.256 100.251 150.592 98.0442 151.491 96.0768C153.53 91.6121 154.666 86.6483 154.666 81.4192C154.666 61.9143 138.855 46.1025 119.35 46.1025C104.667 46.1025 92.0778 55.062 86.7498 67.812" stroke="#283E52" stroke-width="2.5"/>
  <path d="M131.71 101.759C137.392 97.6081 141.083 90.8951 141.083 83.32C141.083 70.7169 130.866 60.5 118.263 60.5C111.056 60.5 104.63 63.8405 100.448 69.0575" stroke="#283E52" stroke-width="2.5" stroke-miterlimit="10" stroke-linecap="round" stroke-linejoin="round"/>
  <path d="M79.3655 110.693L88.5476 119.329L101.148 102.732" stroke="#283E52" stroke-width="2.5" stroke-miterlimit="10" stroke-linecap="round" stroke-linejoin="round"/>
</svg>