<svg xmlns="http://www.w3.org/2000/svg" width="200" height="201" viewBox="0 0 200 201" fill="none">
  <path d="M108.613 92.0339C119.826 96.3675 125.919 89.6776 125.919 89.6776C135.831 79.7657 132.582 68.0655 132.582 68.0655C132.582 68.0655 120.883 64.8151 110.97 74.728C110.97 74.728 104.28 80.8224 108.613 92.0339Z" stroke="#283E52" stroke-width="2" stroke-miterlimit="10" stroke-linecap="round" stroke-linejoin="round"/>
  <path d="M125.924 74.7275L105.458 95.1922" stroke="#283E52" stroke-width="2" stroke-miterlimit="10" stroke-linecap="round" stroke-linejoin="round"/>
  <path d="M114.439 86.218V78.5225" stroke="#283E52" stroke-width="2" stroke-miterlimit="10" stroke-linecap="round" stroke-linejoin="round"/>
  <path d="M120.597 80.0581V74.0742" stroke="#283E52" stroke-width="2" stroke-miterlimit="10" stroke-linecap="round" stroke-linejoin="round"/>
  <path d="M114.439 86.2188H122.134" stroke="#283E52" stroke-width="2" stroke-miterlimit="10" stroke-linecap="round" stroke-linejoin="round"/>
  <path d="M120.597 80.0527H126.581" stroke="#283E52" stroke-width="2" stroke-miterlimit="10" stroke-linecap="round" stroke-linejoin="round"/>
  <path d="M69.1539 70.7098C64.8203 81.9222 71.5102 88.0157 71.5102 88.0157C81.4221 97.9276 93.1223 94.6781 93.1223 94.6781C93.1223 94.6781 96.3717 82.9789 86.4598 73.0661C86.4598 73.0661 80.3663 66.3762 69.1539 70.7098Z" stroke="#283E52" stroke-width="2" stroke-miterlimit="10" stroke-linecap="round" stroke-linejoin="round"/>
  <path d="M86.4643 88.0193L65.9996 67.5537" stroke="#283E52" stroke-width="2" stroke-miterlimit="10" stroke-linecap="round" stroke-linejoin="round"/>
  <path d="M74.9807 76.5361H82.6762" stroke="#283E52" stroke-width="2" stroke-miterlimit="10" stroke-linecap="round" stroke-linejoin="round"/>
  <path d="M81.139 82.6953H87.1229" stroke="#283E52" stroke-width="2" stroke-miterlimit="10" stroke-linecap="round" stroke-linejoin="round"/>
  <path d="M74.9807 76.5361V84.2316" stroke="#283E52" stroke-width="2" stroke-miterlimit="10" stroke-linecap="round" stroke-linejoin="round"/>
  <path d="M81.139 82.6953V88.6782" stroke="#283E52" stroke-width="2" stroke-miterlimit="10" stroke-linecap="round" stroke-linejoin="round"/>
  <path d="M115.36 51.6754C110.496 40.6832 101.456 41.1047 101.456 41.1047C87.4387 41.1047 81.4634 51.6754 81.4634 51.6754C81.4634 51.6754 87.4387 62.2461 101.456 62.2461C101.456 62.2461 110.496 62.6676 115.36 51.6754Z" stroke="#283E52" stroke-width="2" stroke-miterlimit="10" stroke-linecap="round" stroke-linejoin="round"/>
  <path d="M90.8804 51.6777H119.822" stroke="#283E52" stroke-width="2" stroke-miterlimit="10" stroke-linecap="round" stroke-linejoin="round"/>
  <path d="M107.124 51.6729L101.682 57.1141" stroke="#283E52" stroke-width="2" stroke-miterlimit="10" stroke-linecap="round" stroke-linejoin="round"/>
  <path d="M98.4137 51.6729L94.1831 55.9043" stroke="#283E52" stroke-width="2" stroke-miterlimit="10" stroke-linecap="round" stroke-linejoin="round"/>
  <path d="M107.124 51.6737L101.682 46.2324" stroke="#283E52" stroke-width="2" stroke-miterlimit="10" stroke-linecap="round" stroke-linejoin="round"/>
  <path d="M98.4137 51.6749L94.1831 47.4443" stroke="#283E52" stroke-width="2" stroke-miterlimit="10" stroke-linecap="round" stroke-linejoin="round"/>
  <path d="M56.9742 147.297V131.203C44.5703 125.287 35.9996 112.63 35.9996 97.9727C35.9996 85.7515 41.9581 74.9215 51.1286 68.2289C51.1286 68.2289 54.0064 67.0749 55.5117 69.2486C57.0171 71.4224 55.0961 74.1131 55.0961 74.1131C50.1417 78.1935 46.9811 84.3747 46.9811 91.2944C46.9811 99.3437 51.2571 106.395 57.6612 110.299" stroke="#283E52" stroke-width="2" stroke-miterlimit="10" stroke-linecap="round" stroke-linejoin="round"/>
  <path d="M79.1402 147.296V133.673C82.0594 131.55 83.9561 128.108 83.9561 124.222C83.9561 120.373 82.0937 116.96 79.2216 114.832C77.5806 113.351 72.8647 111.61 72.8647 111.61C65.2495 109.095 59.2096 103.119 56.6088 95.544C56.6088 95.544 55.5563 91.755 51.8329 92.2063C47.6926 92.7076 48.181 98.5104 48.181 98.5104" stroke="#283E52" stroke-width="2" stroke-miterlimit="10" stroke-linecap="round" stroke-linejoin="round"/>
  <path d="M142.766 147.297V131.203C155.17 125.287 163.74 112.63 163.74 97.9727C163.74 85.7515 157.782 74.9215 148.611 68.2289C148.611 68.2289 145.734 67.0749 144.228 69.2486C142.723 71.4224 144.644 74.1131 144.644 74.1131C149.598 78.1935 152.759 84.3747 152.759 91.2944C152.759 99.3437 148.483 106.395 142.079 110.299" stroke="#283E52" stroke-width="2" stroke-miterlimit="10" stroke-linecap="round" stroke-linejoin="round"/>
  <path d="M120.601 147.296V133.673C117.682 131.55 115.785 128.108 115.785 124.222C115.785 120.373 117.648 116.96 120.52 114.832C122.161 113.351 126.878 111.61 126.878 111.61C134.493 109.095 140.533 103.119 143.134 95.544C143.134 95.544 144.187 91.755 147.91 92.2063C152.05 92.7076 151.562 98.5104 151.562 98.5104" stroke="#283E52" stroke-width="2" stroke-miterlimit="10" stroke-linecap="round" stroke-linejoin="round"/>
</svg>