<svg width="120" height="121" fill="none" xmlns="http://www.w3.org/2000/svg"><path fill-rule="evenodd" clip-rule="evenodd" d="M52.854 25.751c4.32-.73 8.845-.745 13.407.161l-1.539 6.833a57.706 57.706 0 0 0-11.868-6.994ZM32.279 37.057c-2.24 8.317-2.798 15.675-2.396 22.032 4.967-7.946 10.7-13.59 16.474-17.523-.078-6.71.792-11.928 1.308-14.489a37.574 37.574 0 0 0-15.386 9.98Zm10.673 55.7c-2.24-2.268-4.71-5.137-6.965-8.687-1.481.336-3.066.587-4.65.839a37.145 37.145 0 0 0 9.552 8.053c.679-.03 1.37-.117 2.063-.205Zm-8.137-10.533c-1.597.31-3.253.606-4.953.831a36.081 36.081 0 0 1-4.877-9.007 77.946 77.946 0 0 1 3.696-8.537c1.221 6.785 3.57 12.364 6.134 16.713Zm14.458-4.855a56.945 56.945 0 0 0 4.622-2.528 68.875 68.875 0 0 1-3.157-.914 28.62 28.62 0 0 0-1.465 3.442Zm-4.772 2.068a60.603 60.603 0 0 1-7.628 2.338c-2.667-4.433-5.151-10.225-6.372-17.558 4.296 2.783 9.905 5.93 16.427 8.39a33.588 33.588 0 0 0-2.427 6.83Zm3.355-8.599c-6.988-2.582-12.91-6.01-17.314-8.984 4.69-8.07 10.261-13.812 15.816-17.854.112 2.216.327 4.515.633 6.957.66 4.62 1.864 9.86 4.045 15.283a30.974 30.974 0 0 0-3.18 4.598ZM44.02 81.79c-.097.57-.177 1.121-.242 1.65a35.849 35.849 0 0 0-.265 5.308 27.366 27.366 0 0 0 .107 1.828c-1.82-1.913-3.762-4.217-5.574-6.953a68.482 68.482 0 0 0 5.974-1.833Zm-.039 9.162.002.002 3.273-.44c-1.995.268-2.881.386-3.275.438Zm7.577.301.07-.103-.021.09-.05.013Zm1.99-8.63a32.835 32.835 0 0 0-1.838 1.86c-1.655 1.819-3.063 3.811-4.078 5.981 0 0-.022-.16-.047-.457-.09-1.044-.23-3.78.331-7.262.14-.87.324-1.786.563-2.734a66.18 66.18 0 0 0 6.389-3.246l-1.32 5.857Zm1.008 4.475-.77 3.416a53.814 53.814 0 0 0 10.333-4.365 59.682 59.682 0 0 1-4.443-4.992 71.037 71.037 0 0 0-5.12 5.941Zm3.48-8.104c-.674.475-1.339.97-1.989 1.483l.74-3.28c.4.598.816 1.197 1.249 1.797Zm3.066.735a55.235 55.235 0 0 0 4.84 5.371 64.487 64.487 0 0 0 10.521-7.912c-3.713.122-7.783.05-12.072-.401a54.407 54.407 0 0 0-3.289 2.942Zm.83-3.24c-.745.438-1.491.897-2.232 1.378a51.377 51.377 0 0 1-1.342-1.959c1.204.226 2.396.419 3.575.58Zm4.764-1.482c2.119-1.533 4.39-2.89 6.798-3.951.19-.084.382-.167.575-.247-.188.07-.382.142-.582.218a80.742 80.742 0 0 0-8.578 3.818 69.388 69.388 0 0 1-5.933-.866c6.873-4.946 11.906-10.756 15.442-16.056a60.509 60.509 0 0 1 6.412-.87c1.418 3.555 2.554 7.518 3.284 11.941a82.948 82.948 0 0 1-5.403 6.084c-3.642.218-7.71.267-12.015-.071Zm16.298-18.101a58.116 58.116 0 0 1 2.832 9.919c2.411-3.16 4.589-6.51 6.536-9.89-3.368-.18-6.484-.183-9.368-.029Zm10.76-3.891c-4.522-.291-8.657-.279-12.435-.005a54.62 54.62 0 0 0-1.937-3.699c2.973-6.144 4.51-11.335 5.154-13.927 4.472 4.292 7.771 9.72 9.621 15.613a77.066 77.066 0 0 1-.403 2.018Zm-14.641.188c-.665.069-1.318.146-1.96.231.377-.662.735-1.315 1.067-1.951.305.561.603 1.134.893 1.72Zm-4.543.63c.905-1.518 1.71-3.014 2.473-4.44-2.61-4.421-5.602-7.955-8.474-10.67-.858-.802-1.716-1.604-2.53-2.335l-4.918 21.834c3.723-1.942 8.165-3.46 13.449-4.39ZM58.739 59.58l5.364-23.811c-1.165.285-2.342.628-3.519.971a52.093 52.093 0 0 0-12.159 5.962c.034 2.563.274 5.294.676 8.122.584 4.12 1.642 8.808 3.496 13.684a32.384 32.384 0 0 1 6.142-4.928Zm-4.426 8.982a27.208 27.208 0 0 1 3.095-3.072l-1.431 6.352a57.778 57.778 0 0 1-1.664-3.28Zm-1.428 1.821c-.417.582-.802 1.17-1.158 1.76.8.243 1.612.473 2.435.69a59.19 59.19 0 0 1-1.277-2.45Zm7.026-6.786c3.04-2.054 6.817-3.794 11.502-5-3.288 4.525-7.685 9.348-13.432 13.565l1.93-8.565Zm-1.93 8.565-.015.067-.058-.013.073-.053ZM23.133 56.23c.138-.881.275-1.763.471-2.631 1.07-4.748 3.076-9.042 5.63-12.786-1.488 7.148-1.824 13.521-1.337 19.228a82.13 82.13 0 0 1-4.764-3.81Zm25.23-15.976a52.638 52.638 0 0 1 13.557-6.033h.001c.342-.1.678-.2 1.006-.3-5.758-4.277-11.016-6.435-13.16-7.223a74.836 74.836 0 0 0-1.404 13.556Zm-20.42 22.292c-2.208-1.592-3.918-2.95-5.041-3.934-.345 4.242.06 8.41 1.14 12.303 1.169-3.022 2.474-5.83 3.901-8.369Zm52.418-30.598a59.022 59.022 0 0 0-13.636 1.126l1.513-6.717c4.51 1.138 8.534 3.079 12.123 5.59Zm-10.458 5.188a51.308 51.308 0 0 1 8.184 10.057 74.123 74.123 0 0 0 4.655-13.066c-2.276-.209-8.067-.54-15.22.83.755.718 1.568 1.448 2.381 2.179Z" fill="#283E52"/><path d="M47.632 90.462s-5.762-42.914 59.273-31.844c0 0-26.108 60.332-58.32 37.45 0 0 11.428-21.422 28.662-26.381.129.074-23.016 6.677-29.615 20.775Z" fill="#283E52"/></svg>