<svg width="134" height="134" viewBox="0 0 134 134" fill="none" xmlns="http://www.w3.org/2000/svg">
<path d="M65.5644 81.9721C96.2762 81.9721 121.549 59.1422 124.941 29.7849C125.356 26.2217 122.509 23.0684 118.83 23.0684H12.2986C8.65156 23.0684 5.77233 26.1901 6.18822 29.7849C9.57932 59.1422 34.8846 81.9721 65.5644 81.9721Z" fill="#8BB704"/>
<path d="M108.591 63.9667L66.3306 23.0684V81.9721C82.9021 81.7829 97.8742 74.9087 108.591 63.9667Z" fill="#AEC90B"/>
<path d="M65.5629 81.9721C65.8188 81.9721 66.0748 81.9721 66.2987 81.9721V23.0684L23.5261 64.9127C34.3072 75.4763 49.1833 81.9721 65.5629 81.9721Z" fill="#C7D825"/>
<path d="M66.3322 23.0684H12.2986C8.65156 23.0684 5.77233 26.1901 6.18822 29.7849C7.7558 43.4702 14.0901 55.7366 23.5276 64.9127L66.3322 23.0684Z" fill="#E0E836"/>
<path d="M66.3325 53.75C83.5119 53.75 97.4602 40.0016 97.4602 23.0684H35.2048C35.2048 40.0331 49.1211 53.75 66.3325 53.75Z" fill="#243544"/>
<path d="M66.331 33.2542C72.0255 33.2542 76.6323 28.7135 76.6323 23.1006H55.9978C55.9978 28.6819 60.6366 33.2542 66.331 33.2542Z" fill="#AEC90B"/>
<path d="M63.2929 24.4539C64.6685 22.7196 67.2599 22.5934 68.7954 24.2016L83.2236 39.5898L64.4766 29.7514C62.4611 28.7109 61.9173 26.1882 63.2929 24.4539Z" fill="#AEC90B"/>
<path d="M45.0591 0.0185547C38.4368 0.0185547 33.0303 5.34764 33.0303 11.875H57.1198C57.1198 5.34764 51.7133 0.0185547 45.0591 0.0185547Z" fill="#AEC90B"/>
<path d="M87.5737 0.0185547C80.9195 0.0185547 75.5449 5.34764 75.5449 11.875H99.6345C99.6345 5.34764 94.2279 0.0185547 87.5737 0.0185547Z" fill="#AEC90B"/>
<path d="M10.1145 108.403V113.095C10.1145 115.915 8.29098 116.955 5.54627 116.955H5.33948C2.59477 116.955 0.77124 115.934 0.77124 113.095V102.121C0.77124 99.396 2.59477 98.2607 5.33948 98.2607H5.54627C8.29098 98.2607 10.1145 99.415 10.1145 102.121V103.71C10.1145 104.391 9.75732 104.751 9.08055 104.751H8.14058C7.4638 104.751 7.10662 104.391 7.10662 103.71V102.613C7.10662 101.307 6.42984 100.948 5.45228 100.948C4.47471 100.948 3.79794 101.307 3.79794 102.613V112.641C3.79794 113.947 4.47471 114.306 5.45228 114.306C6.42984 114.306 7.10662 113.947 7.10662 112.641V109.917H6.39224C5.71547 109.917 5.35828 109.557 5.35828 108.876V108.403C5.35828 107.722 5.71547 107.362 6.39224 107.362H9.09935C9.75733 107.362 10.1145 107.722 10.1145 108.403Z" fill="#AEC90B"/>
<path d="M20.6042 116.767H19.7019C19.1003 116.767 18.7243 116.502 18.5363 115.896L16.506 109.463H14.9832V115.707C14.9832 116.388 14.626 116.748 13.9493 116.748H13.0093C12.3325 116.748 11.9753 116.388 11.9753 115.707V99.529C11.9753 98.8478 12.3325 98.4883 13.0093 98.4883H16.6752C19.4199 98.4883 21.2434 99.5857 21.2434 102.348V105.603C21.2434 107.344 20.5102 108.441 19.2695 108.99L21.469 115.537C21.6946 116.256 21.3562 116.767 20.6042 116.767ZM14.9644 106.871H16.5436C17.5211 106.871 18.1979 106.511 18.1979 105.206V102.821C18.1979 101.516 17.5211 101.156 16.5436 101.156H14.9644V106.871Z" fill="#AEC90B"/>
<path d="M30.0805 116.767H24.1211C23.4443 116.767 23.0872 116.407 23.0872 115.726V99.529C23.0872 98.8478 23.4443 98.4883 24.1211 98.4883H30.0053C30.6821 98.4883 31.0393 98.8478 31.0393 99.529V100.097C31.0393 100.778 30.6821 101.137 30.0053 101.137H26.0951V106.152H29.2158C29.8925 106.152 30.2497 106.511 30.2497 107.192V107.76C30.2497 108.441 29.8925 108.801 29.2158 108.801H26.0951V114.08H30.0805C30.7573 114.08 31.1145 114.439 31.1145 115.12V115.688C31.1145 116.388 30.7573 116.767 30.0805 116.767Z" fill="#AEC90B"/>
<path d="M39.4409 116.767H33.4627C32.7859 116.767 32.4287 116.407 32.4287 115.726V99.529C32.4287 98.8478 32.7859 98.4883 33.4627 98.4883H39.3469C40.0236 98.4883 40.3808 98.8478 40.3808 99.529V100.097C40.3808 100.778 40.0236 101.137 39.3469 101.137H35.4366V106.152H38.5573C39.2341 106.152 39.5913 106.511 39.5913 107.192V107.76C39.5913 108.441 39.2341 108.801 38.5573 108.801H35.4366V114.08H39.4409C40.1176 114.08 40.4748 114.439 40.4748 115.12V115.688C40.4748 116.388 40.1176 116.767 39.4409 116.767Z" fill="#AEC90B"/>
<path d="M43.5203 116.767H42.8435C42.1668 116.767 41.8096 116.407 41.8096 115.726V99.529C41.8096 98.8478 42.1668 98.4883 42.8435 98.4883H43.9339C44.5355 98.4883 44.9115 98.7721 45.0995 99.3587L48.6337 109.803V99.529C48.6337 98.8478 48.9909 98.4883 49.6677 98.4883H50.3445C51.0212 98.4883 51.3784 98.8478 51.3784 99.529V115.726C51.3784 116.407 51.0212 116.767 50.3445 116.767H49.4045C48.8029 116.767 48.4269 116.483 48.2389 115.896L44.5543 104.884V115.726C44.5543 116.388 44.1783 116.767 43.5203 116.767Z" fill="#AEC90B"/>
<path d="M58.992 116.767H58.052C57.3753 116.767 57.0181 116.407 57.0181 115.726V99.529C57.0181 98.8478 57.3753 98.4883 58.052 98.4883H58.992C59.6688 98.4883 60.026 98.8478 60.026 99.529V115.726C60.0448 116.388 59.6688 116.767 58.992 116.767Z" fill="white"/>
<path d="M70.0855 99.5297V100.097C70.0855 100.778 69.7283 101.138 69.0515 101.138H67.0588V115.708C67.0588 116.389 66.7016 116.748 66.0248 116.748H65.0848C64.4081 116.748 64.0509 116.389 64.0509 115.708V101.138H62.0393C61.3626 101.138 61.0054 100.778 61.0054 100.097V99.5297C61.0054 98.8485 61.3626 98.489 62.0393 98.489H69.0515C69.7095 98.47 70.0855 98.8485 70.0855 99.5297Z" fill="white"/>
<path d="M76.306 116.767H75.366C74.6892 116.767 74.332 116.407 74.332 115.726V99.529C74.332 98.8478 74.6892 98.4883 75.366 98.4883H76.306C76.9827 98.4883 77.3399 98.8478 77.3399 99.529V115.726C77.3399 116.388 76.9827 116.767 76.306 116.767Z" fill="white"/>
<path d="M86.948 113.228C86.76 113.834 86.4028 114.099 85.8388 114.099C85.2748 114.099 84.88 113.834 84.692 113.228L82.2481 105.584V115.726C82.2481 116.407 81.8909 116.767 81.2142 116.767H80.481C79.8042 116.767 79.447 116.407 79.447 115.726V99.529C79.447 98.8478 79.8042 98.4883 80.481 98.4883H81.421C82.0225 98.4883 82.3985 98.7532 82.5865 99.3587L85.8012 109.122L89.0535 99.3587C89.2415 98.791 89.6175 98.4883 90.2191 98.4883H91.253C91.9298 98.4883 92.287 98.8478 92.287 99.529V115.726C92.287 116.407 91.9298 116.767 91.253 116.767H90.4258C89.7491 116.767 89.3919 116.407 89.3919 115.726V105.584L86.948 113.228Z" fill="white"/>
<path d="M103.546 102.349V105.83C103.546 108.593 101.723 109.69 98.9782 109.69H97.2862V115.726C97.2862 116.407 96.929 116.767 96.2523 116.767H95.3123C94.6355 116.767 94.2783 116.407 94.2783 115.726V99.5292C94.2783 98.848 94.6355 98.4885 95.3123 98.4885H98.9782C101.723 98.4696 103.546 99.5671 103.546 102.349ZM100.538 102.822C100.538 101.516 99.8617 101.156 98.8842 101.156H97.305V107.041H98.8842C99.8617 107.041 100.538 106.682 100.538 105.376V102.822Z" fill="white"/>
<path d="M112.571 116.767H111.612C110.992 116.767 110.597 116.445 110.503 115.802L110.014 112.699H106.687L106.198 115.802C106.085 116.464 105.709 116.767 105.089 116.767H104.28C103.585 116.767 103.209 116.369 103.34 115.65L106.33 99.4344C106.442 98.81 106.856 98.4883 107.476 98.4883H109.337C109.958 98.4883 110.371 98.81 110.484 99.4344L113.511 115.65C113.643 116.369 113.285 116.767 112.571 116.767ZM109.619 110.182L108.341 102.064L107.063 110.182H109.619Z" fill="white"/>
<path d="M123.55 110.352V113.095C123.55 115.915 121.727 116.955 118.982 116.955H118.926C116.181 116.955 114.357 115.934 114.357 113.095V102.121C114.357 99.396 116.181 98.2607 118.926 98.2607H118.982C121.727 98.2607 123.55 99.415 123.55 102.121V104.41C123.55 105.091 123.193 105.451 122.516 105.451H121.576C120.899 105.451 120.542 105.091 120.542 104.41V102.575C120.542 101.288 119.922 100.91 118.963 100.91C118.004 100.91 117.384 101.307 117.384 102.575V112.603C117.384 113.89 118.004 114.269 118.963 114.269C119.922 114.269 120.542 113.871 120.542 112.603V110.333C120.542 109.652 120.899 109.292 121.576 109.292H122.516C123.193 109.311 123.55 109.689 123.55 110.352Z" fill="white"/>
<path d="M133.177 99.5297V100.097C133.177 100.778 132.819 101.138 132.143 101.138H130.15V115.708C130.15 116.389 129.793 116.748 129.116 116.748H128.176C127.499 116.748 127.142 116.389 127.142 115.708V101.138H125.149C124.472 101.138 124.115 100.778 124.115 100.097V99.5297C124.115 98.8485 124.472 98.489 125.149 98.489H132.161C132.819 98.47 133.177 98.8485 133.177 99.5297Z" fill="white"/>
<path d="M5.8278 130.918H1.74834L0.958768 133.075H0L3.27109 124.144H4.28625L7.55734 133.075H6.59857L5.8278 130.918ZM3.77867 125.279L2.01153 130.18H5.56461L3.77867 125.279Z" fill="white"/>
<path d="M11.9955 125.901C13.7626 125.901 14.9094 126.847 15.2289 128.304H14.2702C14.0446 127.302 13.1986 126.677 12.0143 126.677C10.6419 126.677 9.51394 127.623 9.51394 129.534C9.51394 131.445 10.6231 132.41 12.0143 132.41C13.1986 132.41 14.0258 131.805 14.2702 130.764H15.2289C14.9094 132.183 13.7626 133.167 11.9955 133.167C10.0215 133.167 8.59277 131.767 8.59277 129.534C8.59277 127.302 10.0215 125.901 11.9955 125.901Z" fill="white"/>
<path d="M17.146 126.773H16.1685V126.016H17.146V124.237H18.0672V126.016H20.0035V126.773H18.0484V131.163C18.0484 132.033 18.3492 132.298 19.1576 132.298H19.9847V133.074H19.026C17.804 133.074 17.146 132.563 17.146 131.163V126.773Z" fill="white"/>
<path d="M25.2105 126.774H24.2329V126.017H25.2105V125.525C25.2105 124.011 25.9248 123.292 27.692 123.292V124.068C26.4888 124.068 26.1128 124.503 26.1128 125.525V126.017H27.7484V126.774H26.1128V133.075H25.2105V126.774Z" fill="white"/>
<path d="M32.2223 133.167C30.2483 133.167 28.7444 131.767 28.7444 129.534C28.7444 127.283 30.2859 125.901 32.2599 125.901C34.2338 125.901 35.7753 127.283 35.7753 129.534C35.7565 131.767 34.215 133.167 32.2223 133.167ZM32.2223 132.392C33.5382 132.392 34.8354 131.483 34.8354 129.553C34.8354 127.623 33.5758 126.715 32.2411 126.715C30.9063 126.715 29.6655 127.623 29.6655 129.553C29.6655 131.483 30.8875 132.392 32.2223 132.392Z" fill="white"/>
<path d="M38.3123 133.077H37.4099V126.019H38.3123V127.268C38.7071 126.398 39.5154 125.887 40.7186 125.887V126.833H40.4742C39.3086 126.833 38.3123 127.363 38.3123 129.141V133.077Z" fill="white"/>
<path d="M48.015 133.167C46.417 133.167 45.3079 132.373 45.1951 131.067H46.1162C46.1914 131.843 46.8682 132.392 48.015 132.392C49.0113 132.392 49.5753 131.843 49.5753 131.181C49.5753 129.44 45.3643 130.462 45.3643 127.812C45.3643 126.772 46.3606 125.901 47.827 125.901C49.3309 125.901 50.3273 126.696 50.4025 128.058H49.5001C49.4437 127.264 48.8609 126.677 47.8082 126.677C46.8682 126.677 46.2854 127.188 46.2854 127.794C46.2854 129.705 50.4401 128.683 50.4777 131.181C50.4589 132.335 49.4625 133.167 48.015 133.167Z" fill="white"/>
<path d="M58.2221 133.074H57.3197V131.826C56.8873 132.715 55.9662 133.188 54.9322 133.188C53.3343 133.188 52.0747 132.204 52.0747 130.142V126.017H52.9583V130.047C52.9583 131.617 53.8042 132.412 55.1014 132.412C56.4174 132.412 57.3197 131.58 57.3197 129.858V126.017H58.2221V133.074Z" fill="white"/>
<path d="M62.6951 133.167C61.0972 133.167 59.988 132.373 59.8752 131.067H60.7964C60.8716 131.843 61.5484 132.392 62.6951 132.392C63.6915 132.392 64.2555 131.843 64.2555 131.181C64.2555 129.44 60.0444 130.462 60.0444 127.812C60.0444 126.772 61.0408 125.901 62.5072 125.901C64.0111 125.901 65.0075 126.696 65.0827 128.058H64.1803C64.1239 127.264 63.5411 126.677 62.4884 126.677C61.5484 126.677 60.9656 127.188 60.9656 127.794C60.9656 129.705 65.1203 128.683 65.1579 131.181C65.1391 132.335 64.1615 133.167 62.6951 133.167Z" fill="white"/>
<path d="M67.094 126.773H66.1165V126.016H67.094V124.237H68.0152V126.016H69.9327V126.773H67.9964V131.163C67.9964 132.033 68.2972 132.298 69.1055 132.298H69.9327V133.074H68.974C67.752 133.074 67.094 132.563 67.094 131.163V126.773Z" fill="white"/>
<path d="M74.3714 125.901C75.7813 125.901 76.7589 126.658 77.1537 127.566V126.015H78.056V133.073H77.1537V131.502C76.7401 132.41 75.7625 133.167 74.3714 133.167C72.4538 133.167 71.0251 131.729 71.0251 129.515C71.0063 127.302 72.435 125.901 74.3714 125.901ZM74.5218 126.696C73.0366 126.696 71.9087 127.737 71.9087 129.534C71.9087 131.313 73.0366 132.392 74.5218 132.392C75.9693 132.392 77.1349 131.313 77.1349 129.553C77.1349 127.794 75.9693 126.696 74.5218 126.696Z" fill="white"/>
<path d="M79.8972 123.993C79.8972 123.596 80.198 123.331 80.5552 123.331C80.9124 123.331 81.2132 123.596 81.2132 123.993C81.2132 124.391 80.9124 124.674 80.5552 124.674C80.1792 124.674 79.8972 124.391 79.8972 123.993ZM80.104 125.999H81.0064V133.057H80.104V125.999Z" fill="white"/>
<path d="M88.3002 129.023C88.3002 127.453 87.4542 126.658 86.1571 126.658C84.8411 126.658 83.9387 127.491 83.9387 129.213V133.073H83.0364V126.015H83.9387V127.226C84.3899 126.337 85.2923 125.901 86.3263 125.901C87.9242 125.901 89.1838 126.885 89.1838 128.948V133.092H88.3002V129.023Z" fill="white"/>
<path d="M94.1288 125.901C95.5388 125.901 96.5163 126.658 96.9111 127.566V126.015H97.8135V133.073H96.9111V131.502C96.4975 132.41 95.52 133.167 94.1288 133.167C92.2113 133.167 90.7825 131.729 90.7825 129.515C90.7637 127.302 92.1925 125.901 94.1288 125.901ZM94.298 126.696C92.8129 126.696 91.6849 127.737 91.6849 129.534C91.6849 131.313 92.8129 132.392 94.298 132.392C95.7455 132.392 96.9111 131.313 96.9111 129.553C96.9111 127.794 95.7268 126.696 94.298 126.696Z" fill="white"/>
<path d="M103.527 125.902C105.464 125.902 106.874 127.322 106.874 129.517C106.874 131.73 105.445 133.168 103.527 133.168C102.117 133.168 101.159 132.43 100.745 131.503V133.055H99.8615V123.48H100.745V127.549C101.177 126.64 102.155 125.902 103.527 125.902ZM103.358 126.697C101.929 126.697 100.745 127.776 100.745 129.535C100.745 131.295 101.929 132.374 103.358 132.374C104.843 132.374 105.971 131.295 105.971 129.517C105.971 127.719 104.824 126.697 103.358 126.697Z" fill="white"/>
<path d="M108.529 123.5H109.432V133.074H108.529V123.5Z" fill="white"/>
<path d="M114.506 133.167C112.513 133.167 111.066 131.767 111.066 129.534C111.066 127.283 112.494 125.901 114.506 125.901C116.555 125.901 117.815 127.377 117.815 129.175C117.815 129.459 117.815 129.648 117.796 129.894H111.968C112.043 131.559 113.19 132.41 114.506 132.41C115.709 132.41 116.517 131.767 116.762 130.84H117.721C117.401 132.164 116.273 133.167 114.506 133.167ZM111.987 129.156H116.931C116.969 127.51 115.784 126.677 114.487 126.677C113.209 126.677 112.081 127.51 111.987 129.156Z" fill="white"/>
<path d="M123.005 124.029H123.907V133.074H123.005V124.029Z" fill="white"/>
<path d="M125.299 124.029H131.202V124.786H128.701V133.074H127.799V124.786H125.299V124.029Z" fill="white"/>
</svg>
